<svg xmlns="http://www.w3.org/2000/svg" viewBox="0 0 680 400"><defs><style>.cls-1{fill:#4d4d4d;}.cls-2{fill:#ff6661;}</style></defs><g id="Layer_2" data-name="Layer 2"><g id="레이어_1" data-name="레이어 1"><rect class="cls-1" width="133.33" height="133.33"/><path class="cls-2" d="M133.33,0h33.33a100,100,0,0,1,100,100v33.33a0,0,0,0,1,0,0H133.33a0,0,0,0,1,0,0V0A0,0,0,0,1,133.33,0Z"/><path class="cls-1" d="M133.33,133.33H266.67a0,0,0,0,1,0,0v33.33a100,100,0,0,1-100,100H133.33a0,0,0,0,1,0,0V133.33a0,0,0,0,1,0,0Z"/><path class="cls-1" d="M280,266.67H413.33a0,0,0,0,1,0,0V400a0,0,0,0,1,0,0H380A100,100,0,0,1,280,300V266.67A0,0,0,0,1,280,266.67Z"/><rect class="cls-2" x="413.33" y="133.33" width="133.33" height="133.33"/><path class="cls-1" d="M380,0h33.33a0,0,0,0,1,0,0V133.33a0,0,0,0,1,0,0H280a0,0,0,0,1,0,0V100A100,100,0,0,1,380,0Z"/><path class="cls-1" d="M546.67,266.67H680a0,0,0,0,1,0,0V300A100,100,0,0,1,580,400H546.67a0,0,0,0,1,0,0V266.67A0,0,0,0,1,546.67,266.67Z"/><path class="cls-1" d="M546.67,0H580A100,100,0,0,1,680,100v33.33a0,0,0,0,1,0,0H546.67a0,0,0,0,1,0,0V0A0,0,0,0,1,546.67,0Z"/><rect class="cls-2" y="133.33" width="133.33" height="133.33"/><rect class="cls-1" y="266.67" width="133.33" height="133.33"/></g></g></svg>