<svg xmlns="http://www.w3.org/2000/svg" viewBox="0 0 612.04 896.08"><defs><style>.cls-1{fill:#363689;}.cls-2{fill:#2f2a72;}.cls-3{fill:#5347a5;}.cls-4{fill:#3d3193;}.cls-5{fill:#424242;}</style></defs><g id="Layer_2" data-name="Layer 2"><g id="레이어_1" data-name="레이어 1"><path class="cls-1" d="M609.92,628.83,494,428.13a303,303,0,0,1-79.23,45.11L531,674.42h0l79,45.58V628.83Z"/><path class="cls-2" d="M306,102.48l-76.7,44.28a2.6,2.6,0,0,0-.95,3.55L414.81,473.24A303,303,0,0,0,494,428.13Zm0,101.26A14.72,14.72,0,1,1,320.74,189,14.72,14.72,0,0,1,306,203.74Z"/><path class="cls-3" d="M2.12,628.83h0V720l78.95-45.58h0L197.22,473.25A303.21,303.21,0,0,1,118,428.14Z"/><path class="cls-4" d="M306,102.48,118,428.14a303.21,303.21,0,0,0,79.23,45.11L383.68,150.3a2.58,2.58,0,0,0-.95-3.53Zm0,101.26A14.72,14.72,0,1,1,320.74,189,14.72,14.72,0,0,1,306,203.74Z"/><path class="cls-3" d="M383.53,141.68l-70.86-44a6.74,6.74,0,0,1-3.2-5.74V1.71a1.68,1.68,0,0,1,3.3-.48c6.57,24.06,25,76.33,72,139.14A.91.91,0,0,1,383.53,141.68Z"/><path class="cls-4" d="M228.5,141.68l70.87-44A6.76,6.76,0,0,0,302.56,92V1.71a1.68,1.68,0,0,0-3.29-.48c-6.58,24.06-25,76.33-72,139.14A.91.91,0,0,0,228.5,141.68Z"/><path class="cls-5" d="M74.23,842.24H32.91l-7.85,23.57H0L42.57,751.44H64.41l42.81,114.37H82.16Zm-35-19.09H67.86l-14.37-42.8Z"/><path class="cls-5" d="M194.56,770.53h-35v95.28H136V770.53H101.4V751.44h93.16Z"/><path class="cls-5" d="M276.8,816.24H231.56v30.64h53.09v18.93H208V751.44H284.5v19.09H231.56v27.25H276.8Z"/><path class="cls-5" d="M322,846.88h50v18.93h-73.6V751.44H322Z"/><path class="cls-5" d="M410.64,865.81H387.08V751.44h23.56Z"/><path class="cls-5" d="M501.29,816.24H456v30.64h53.1v18.93H432.48V751.44H509v19.09H456v27.25h45.25Z"/><path class="cls-5" d="M565.3,823.94H546.53v41.87H523V751.44h42.5a64.88,64.88,0,0,1,17.75,2.24,37,37,0,0,1,13.27,6.6,28.78,28.78,0,0,1,8.33,10.8A35.91,35.91,0,0,1,607.72,786a41,41,0,0,1-1.42,11.27,29.27,29.27,0,0,1-10.52,15.67,41.9,41.9,0,0,1-8.49,5L612,864.71v1.1h-25.3Zm-18.77-19.09h19a24.76,24.76,0,0,0,8.13-1.21,15.8,15.8,0,0,0,5.81-3.46,14.4,14.4,0,0,0,3.49-5.34,19.38,19.38,0,0,0,1.18-7q0-8.1-4.59-12.73t-14.1-4.63H546.53Z"/><polygon class="cls-1" points="53.61 744.89 62.31 729.81 44.9 729.81 53.61 744.89"/><path class="cls-5" d="M8.27,893H3.43l-1,2.92H.15L4.88,883.4h2l4.73,12.51H9.3ZM4,891.24H7.66l-1.81-5.19Z"/><path class="cls-5" d="M43.84,895.91H41.67L36.09,887v8.88H33.92V883.4h2.17l5.6,8.91V883.4h2.15Z"/><path class="cls-1" d="M100.2,882.7v1.77h-7V888h7v1.77h-7v4.4h7v1.76H91.39V882.7Z"/><path class="cls-1" d="M123.11,882.7a6.61,6.61,0,0,1,0,13.21h-4.84V882.7Zm0,11.45a4.84,4.84,0,0,0,0-9.68H120v9.68Z"/><path class="cls-1" d="M160.63,894.15v1.76H154a6.61,6.61,0,1,1,3.85-12,6.49,6.49,0,0,1,2.38,3.16h-1.92a4.81,4.81,0,0,0-4.31-2.63,4.84,4.84,0,0,0,0,9.68Z"/><path class="cls-1" d="M191.1,895.91h-1.94l-1.57-3.53h-5.32l-1.56,3.53h-1.93l6.15-13.21Zm-8-5.28h3.75l-1.88-4.23Z"/><path class="cls-1" d="M219.29,882.7v13.21l-8.81-9v9h-1.75V882.7l8.8,8.8v-8.8Z"/><path class="cls-5" d="M264,895.91V883.4h3.69a6,6,0,0,1,2.29.42,5.09,5.09,0,0,1,1.78,1.2,5.53,5.53,0,0,1,1.16,1.87,7.09,7.09,0,0,1,.41,2.46V890a7,7,0,0,1-.41,2.45,5.33,5.33,0,0,1-1.16,1.87,5.1,5.1,0,0,1-1.81,1.19,6.4,6.4,0,0,1-2.36.43Zm2.17-10.76v9h1.42a3.9,3.9,0,0,0,1.55-.29,2.91,2.91,0,0,0,1.12-.83,3.72,3.72,0,0,0,.66-1.32,6.36,6.36,0,0,0,.23-1.76v-.64a4.8,4.8,0,0,0-.89-3.11,3.16,3.16,0,0,0-2.57-1.07Z"/><path class="cls-5" d="M303.77,890.32h-5.14v3.85h6v1.74h-8.18V883.4h8.12v1.75h-5.95v3.45h5.14Z"/><path class="cls-5" d="M331.75,893.18l3.18-9.78h2.39l-4.5,12.51h-2.11l-4.48-12.51h2.38Z"/><path class="cls-5" d="M367,890.32h-5.14v3.85h6v1.74h-8.18V883.4h8.11v1.75h-5.94v3.45H367Z"/><path class="cls-5" d="M392.73,894.17h5.67v1.74h-7.85V883.4h2.18Z"/><path class="cls-5" d="M430.44,890a8,8,0,0,1-.37,2.55,5.63,5.63,0,0,1-1.05,1.92,4.67,4.67,0,0,1-1.64,1.21,5.49,5.49,0,0,1-4.21,0,4.71,4.71,0,0,1-1.65-1.21,5.5,5.5,0,0,1-1.07-1.92,7.76,7.76,0,0,1-.39-2.55v-.64a7.86,7.86,0,0,1,.39-2.56,5.65,5.65,0,0,1,1.06-1.92,4.55,4.55,0,0,1,1.64-1.21,5.15,5.15,0,0,1,2.1-.43,5.21,5.21,0,0,1,2.12.43,4.47,4.47,0,0,1,1.64,1.21,5.48,5.48,0,0,1,1.06,1.92,8.16,8.16,0,0,1,.37,2.56Zm-2.17-.66a7.94,7.94,0,0,0-.2-1.85,4,4,0,0,0-.59-1.34,2.56,2.56,0,0,0-1-.82,2.8,2.8,0,0,0-1.28-.28,2.7,2.7,0,0,0-1.25.28,2.56,2.56,0,0,0-.95.82,4,4,0,0,0-.6,1.34,7.41,7.41,0,0,0-.21,1.85V890a7.36,7.36,0,0,0,.21,1.85,4.15,4.15,0,0,0,.6,1.36,2.64,2.64,0,0,0,2.22,1.1,2.57,2.57,0,0,0,2.22-1.1,5.51,5.51,0,0,0,.78-3.21Z"/><path class="cls-5" d="M455.72,891.26v4.65h-2.18V883.4h4.79a6.09,6.09,0,0,1,1.94.29,4.27,4.27,0,0,1,1.43.83,3.71,3.71,0,0,1,.89,1.26,4.17,4.17,0,0,1,.3,1.59,4.24,4.24,0,0,1-.3,1.64,3.38,3.38,0,0,1-.89,1.22,4.15,4.15,0,0,1-1.43.76,6.4,6.4,0,0,1-1.94.27Zm0-1.75h2.61a3.43,3.43,0,0,0,1.08-.15,1.87,1.87,0,0,0,.74-.44,1.64,1.64,0,0,0,.43-.67,2.84,2.84,0,0,0,0-1.7,1.9,1.9,0,0,0-.43-.72,2.1,2.1,0,0,0-.74-.5,2.91,2.91,0,0,0-1.08-.18h-2.61Z"/><path class="cls-5" d="M520.2,883.4v8.36a4.62,4.62,0,0,1-.37,1.89,3.83,3.83,0,0,1-1,1.34,4.08,4.08,0,0,1-1.49.82,5.93,5.93,0,0,1-1.82.27,6.15,6.15,0,0,1-1.86-.27,4,4,0,0,1-1.48-.82,3.79,3.79,0,0,1-1-1.34,4.79,4.79,0,0,1-.35-1.89V883.4H513v8.36a3.33,3.33,0,0,0,.18,1.16,2.23,2.23,0,0,0,.5.8,2,2,0,0,0,.79.47,3.39,3.39,0,0,0,1,.15,3.46,3.46,0,0,0,1.05-.15,2,2,0,0,0,.79-.47,2.23,2.23,0,0,0,.5-.8,3.59,3.59,0,0,0,.17-1.16V883.4Z"/><path class="cls-5" d="M553.38,895.91H551.2L545.63,887v8.88h-2.18V883.4h2.18l5.59,8.91V883.4h2.16Z"/><path class="cls-5" d="M579.18,895.91H577V883.4h2.17Z"/><path class="cls-5" d="M611.57,885.15h-3.9v10.76h-2.15V885.15h-3.87V883.4h9.92Z"/></g></g></svg>