<svg xmlns="http://www.w3.org/2000/svg" viewBox="0 0 798.18 961.53"><defs><style>.cls-1{fill:#455a64;}.cls-2{fill:#00b8d4;}</style></defs><g id="Layer_2" data-name="Layer 2"><g id="레이어_1" data-name="레이어 1"><path class="cls-1" d="M592.26,286.37,319,559.65a18.52,18.52,0,0,1-26.2,0l-37.21-37.21L542,236.07l-46.44-46.44L209.14,476,79.05,345.91a18.54,18.54,0,0,1,0-26.2L352.33,46.44,305.89,0,19.51,286.37h0l-.47.48a65,65,0,0,0,0,91.93l.47.47L162.7,522.44l46.44,46.44,50.31,50.31.48.48a65,65,0,0,0,91.92,0L638.7,332.81Z"/><path class="cls-2" d="M538.73,48.37h0l-.48-.47a65,65,0,0,0-91.92,0l-.48.47L159.48,334.75l46.44,46.44L479.19,107.91a18.54,18.54,0,0,1,26.2,0L719.13,321.65a18.54,18.54,0,0,1,0,26.2L445.85,621.12l46.44,46.44L778.66,381.19l.48-.48a65,65,0,0,0,0-91.92Z"/><path class="cls-1" d="M185.22,791.58v18.06h-72v35.84h72v18.06h-72v45h72v17.92H95.33V791.58Z"/><path class="cls-1" d="M244.2,791.58q27.84,0,47.56,19.71T311.48,859q0,28-19.72,47.7T244.2,926.41H194.7V791.58Zm0,116.91a49.43,49.43,0,0,0,0-98.85H212.63v98.85Z"/><path class="cls-2" d="M452.21,908.49v17.92H384.79q-28,0-47.7-19.72T317.38,859q0-27.84,19.71-47.7t47.7-19.71a65.44,65.44,0,0,1,39.3,12.68,66.11,66.11,0,0,1,24.26,32.26H428.78a49.07,49.07,0,0,0-44-26.88,49.43,49.43,0,1,0,0,98.85Z"/><path class="cls-2" d="M588.4,926.41H568.54l-16-36H498.23l-16,36H462.52l62.87-134.83ZM506.22,872.5h38.33l-19.16-43.15Z"/><path class="cls-2" d="M701.14,791.58V926.41L611.26,835v91.4H593.33V791.58l89.89,89.88V791.58Z"/><path class="cls-1" d="M106.82,961.16H94.91V943h11.65v3.23H98.37v3.87h6.34v3.22H98.37v4.66h8.45Z"/><path class="cls-1" d="M135.54,943,129,961.16h-3.9L118.36,943h3.43l5.12,13.79,5-13.79Z"/><path class="cls-1" d="M160,961.16H148.13V943h11.65v3.23h-8.19v3.87h6.34v3.22h-6.34v4.66H160Z"/><path class="cls-1" d="M187.52,961.16H184l-3.69-6.76h-3.38v6.76h-3.32V943h6.64q6.26,0,6.25,5.25a5.69,5.69,0,0,1-.81,3.19,7.12,7.12,0,0,1-2.3,2.14Zm-8-15.42h-2.58v5.54h2.45a4.25,4.25,0,0,0,2.88-.73,2.68,2.68,0,0,0,.78-2.1,2.58,2.58,0,0,0-.75-2A4.32,4.32,0,0,0,179.49,945.74Z"/><path class="cls-1" d="M213.86,943,207.62,953v8.14h-3.33V953L198.05,943h3.46l4.45,7.27L210.4,943Z"/><path class="cls-1" d="M233.28,961.16h-6.81V943h6.81a9.1,9.1,0,1,1,0,18.2Zm0-15H229.8v11.75h3.48a5,5,0,0,0,4-1.55,7.56,7.56,0,0,0,0-8.65A5,5,0,0,0,233.28,946.19Z"/><path class="cls-1" d="M269.7,961.16h-3.42l-1.55-4.39h-6.1l-1.57,4.39h-3.42l6.48-18.2h3.14Zm-6.11-7.62-1.9-5.37-1.91,5.37Z"/><path class="cls-1" d="M294.46,943,288.22,953v8.14h-3.33V953L278.65,943h3.46l4.45,7.27L291,943Z"/><path class="cls-2" d="M331.48,961.53A8.56,8.56,0,0,1,325,958.9a10.57,10.57,0,0,1,0-13.68,8.55,8.55,0,0,1,6.46-2.62,11.71,11.71,0,0,1,5.18,1.07l-.37,3.19a13.23,13.23,0,0,0-4.81-1,4.79,4.79,0,0,0-4,1.71,8.13,8.13,0,0,0,0,9.06,4.79,4.79,0,0,0,4,1.71,13.2,13.2,0,0,0,4.81-1l.37,3.18A11.57,11.57,0,0,1,331.48,961.53Z"/><path class="cls-2" d="M364.06,961.16h-3.54l-3.69-6.76h-3.38v6.76h-3.32V943h6.64q6.25,0,6.25,5.25a5.69,5.69,0,0,1-.81,3.19,7.12,7.12,0,0,1-2.3,2.14Zm-8-15.42h-2.58v5.54h2.45a4.25,4.25,0,0,0,2.88-.73,2.72,2.72,0,0,0,.78-2.1,2.58,2.58,0,0,0-.75-2A4.32,4.32,0,0,0,356,945.74Z"/><path class="cls-2" d="M389,961.16H377.09V943h11.65v3.23h-8.19v3.87h6.34v3.22h-6.34v4.66H389Z"/><path class="cls-2" d="M416.68,961.16h-3.43l-1.55-4.39h-6.1L404,961.16h-3.42L407.1,943h3.14Zm-6.12-7.62-1.89-5.37-1.92,5.37Z"/><path class="cls-2" d="M440.11,946.19H435v15h-3.32v-15h-5.15V943h13.62Z"/><path class="cls-2" d="M465.1,961.16H453.19V943h11.65v3.23h-8.19v3.87H463v3.22h-6.34v4.66h8.45Z"/><path class="cls-2" d="M509.31,961.16h-3.42l-1.55-4.39h-6.1l-1.56,4.39h-3.43l6.49-18.2h3.13Zm-6.11-7.62-1.89-5.37-1.92,5.37Z"/><path class="cls-2" d="M532.93,961.16H522.11V943h3.33v15h7.49Z"/><path class="cls-2" d="M556.62,961.16H545.8V943h3.33v15h7.49Z"/><path class="cls-2" d="M600.4,961.16h-2.73l-8.32-12.48v12.48H586V943h3.33l7.72,11.68V943h3.33Z"/><path class="cls-2" d="M618.42,961.16h-3.33V943h3.33Z"/><path class="cls-2" d="M640.91,961.53a8.44,8.44,0,0,1-6.38-2.62,10.6,10.6,0,0,1,0-13.71,8.72,8.72,0,0,1,6.55-2.6,15.6,15.6,0,0,1,2.94.3,10.36,10.36,0,0,1,2.52.77l-.36,3.19a13.32,13.32,0,0,0-5-1,5,5,0,0,0-4.12,1.7,6.8,6.8,0,0,0-1.39,4.46,6.89,6.89,0,0,0,1.45,4.6,5.21,5.21,0,0,0,4.21,1.72,12.41,12.41,0,0,0,2.5-.28v-3.2h-2V952h5.33v8.1a10.27,10.27,0,0,1-2.84,1A16,16,0,0,1,640.91,961.53Z"/><path class="cls-2" d="M676.29,961.16H673v-7.88h-8.58v7.88h-3.33V943h3.33v7.1H673V943h3.32Z"/><path class="cls-2" d="M703,946.19h-5.15v15h-3.33v-15h-5.15V943H703Z"/></g></g></svg>