<svg xmlns="http://www.w3.org/2000/svg" viewBox="0 0 1345.7 265.58"><defs><style>.cls-1{fill:#4d4d4d;}.cls-2{fill:#ff6661;}</style></defs><g id="Layer_2" data-name="Layer 2"><g id="레이어_1" data-name="레이어 1"><rect class="cls-1" width="86.67" height="86.67"/><path class="cls-2" d="M86.67,0h0a86.67,86.67,0,0,1,86.67,86.67v0a0,0,0,0,1,0,0H86.67a0,0,0,0,1,0,0V0A0,0,0,0,1,86.67,0Z"/><path class="cls-1" d="M86.67,86.67h86.67a0,0,0,0,1,0,0v0a86.67,86.67,0,0,1-86.67,86.67h0a0,0,0,0,1,0,0V86.67A0,0,0,0,1,86.67,86.67Z"/><path class="cls-1" d="M182,173.33h86.67a0,0,0,0,1,0,0V260a0,0,0,0,1,0,0h0A86.67,86.67,0,0,1,182,173.33v0A0,0,0,0,1,182,173.33Z"/><rect class="cls-2" x="268.67" y="86.67" width="86.67" height="86.67"/><path class="cls-1" d="M268.67,0h0a0,0,0,0,1,0,0V86.67a0,0,0,0,1,0,0H182a0,0,0,0,1,0,0v0A86.67,86.67,0,0,1,268.67,0Z"/><path class="cls-1" d="M355.33,173.33H442a0,0,0,0,1,0,0v0A86.67,86.67,0,0,1,355.33,260h0a0,0,0,0,1,0,0V173.33A0,0,0,0,1,355.33,173.33Z"/><path class="cls-1" d="M355.33,0h0A86.67,86.67,0,0,1,442,86.67v0a0,0,0,0,1,0,0H355.33a0,0,0,0,1,0,0V0A0,0,0,0,1,355.33,0Z"/><rect class="cls-2" y="86.67" width="86.67" height="86.67"/><rect class="cls-1" y="173.33" width="86.67" height="86.67"/><path class="cls-2" d="M574.41,119.11v68.53H538.34V.77h63.92A81.19,81.19,0,0,1,629.85,5.2a61.74,61.74,0,0,1,21,12.32,53.59,53.59,0,0,1,13.34,18.93A62,62,0,0,1,668.87,61a57,57,0,0,1-4.69,23.23,53.17,53.17,0,0,1-13.34,18.41,62,62,0,0,1-21,12.13,82.2,82.2,0,0,1-27.59,4.37Zm0-29.27h27.85a35.09,35.09,0,0,0,13.34-2.31A26.77,26.77,0,0,0,625,81.24a26,26,0,0,0,5.65-9.17,32.22,32.22,0,0,0,1.86-10.85A39.06,39.06,0,0,0,630.69,49,27.81,27.81,0,0,0,625,39.15a26.59,26.59,0,0,0-9.44-6.68A33.55,33.55,0,0,0,602.26,30H574.41Z"/><path class="cls-1" d="M714.87.77H822.93V29.91H786.48V158.64h36.45v29H714.87v-29h35.55V29.91H714.87Z"/><path class="cls-2" d="M941.06,67.77,974.3.77h42.36L964,93.44l53.91,94.2h-42.1l-34.27-68-34.14,68H864.82l53.91-94.2L866.24.77h42.09Z"/><path class="cls-1" d="M1163.66,105.76h-76.75v52.75h89.71v29.13h-125.9V.77h125.52V30.16h-89.33V77.27h76.75Z"/><path class="cls-1" d="M1258.17,158.51h87.53v29.13H1222V.77h36.19Z"/><path class="cls-1" d="M551.73,259.14a3.24,3.24,0,0,1-.27-.8,9.44,9.44,0,0,1-.14-1,7.57,7.57,0,0,1-1,.8,6.1,6.1,0,0,1-1.14.67,7.28,7.28,0,0,1-1.34.45,6.21,6.21,0,0,1-1.52.17,7,7,0,0,1-2.35-.38,5.43,5.43,0,0,1-1.78-1,4.51,4.51,0,0,1-1.14-1.53,4.67,4.67,0,0,1-.4-1.91,5,5,0,0,1,.54-2.36,4.64,4.64,0,0,1,1.52-1.69,6.92,6.92,0,0,1,2.37-1,13.31,13.31,0,0,1,3.09-.33h3v-1.29a3.16,3.16,0,0,0-.27-1.33,2.84,2.84,0,0,0-.77-1A3.62,3.62,0,0,0,549,245a5.35,5.35,0,0,0-1.61-.23,4.92,4.92,0,0,0-1.49.21,3.85,3.85,0,0,0-1.11.56,2.51,2.51,0,0,0-.7.83,2.08,2.08,0,0,0-.25,1H541a3.93,3.93,0,0,1,.47-1.76,4.89,4.89,0,0,1,1.28-1.55,6.63,6.63,0,0,1,2-1.11,8.32,8.32,0,0,1,2.73-.42,9.32,9.32,0,0,1,2.59.34,5.91,5.91,0,0,1,2.07,1,4.85,4.85,0,0,1,1.36,1.71,5.38,5.38,0,0,1,.5,2.41v7.61a10.75,10.75,0,0,0,.15,1.73,8.58,8.58,0,0,0,.43,1.6v.24Zm-5-2.14a5.34,5.34,0,0,0,1.53-.21,5.19,5.19,0,0,0,1.29-.56,4.48,4.48,0,0,0,1-.79,4,4,0,0,0,.66-.93V251.2h-2.6a8.28,8.28,0,0,0-3.81.72,2.42,2.42,0,0,0-1.36,2.29,3.18,3.18,0,0,0,.2,1.12,2.35,2.35,0,0,0,.62.88,2.77,2.77,0,0,0,1,.58A4.44,4.44,0,0,0,546.78,257Z"/><path class="cls-1" d="M583.45,242.77l.2,2.42a6.4,6.4,0,0,1,2.19-2,6,6,0,0,1,2.9-.73,7.18,7.18,0,0,1,2.34.36,4.37,4.37,0,0,1,1.79,1.14,5.07,5.07,0,0,1,1.15,1.95,9.15,9.15,0,0,1,.4,2.83v10.39h-2.8V248.81a6.2,6.2,0,0,0-.24-1.85,2.78,2.78,0,0,0-1.89-1.91,5.4,5.4,0,0,0-1.58-.21,4.39,4.39,0,0,0-2.47.71,5.13,5.13,0,0,0-1.7,1.85v11.74h-2.8V242.77Z"/><path class="cls-2" d="M673.41,236.38v3.05H661.26v6h12.15v3.05H661.26v7.58h12.15v3H658.24V236.38Z"/><path class="cls-2" d="M701,236.38a11.38,11.38,0,0,1,0,22.76h-8.35V236.38Zm0,19.73a8.34,8.34,0,0,0,0-16.68h-5.33v16.68Z"/><path class="cls-2" d="M753.75,256.11v3H742.37A11.38,11.38,0,1,1,749,238.52a11.15,11.15,0,0,1,4.1,5.45h-3.31a8.24,8.24,0,0,0-7.42-4.54,8.34,8.34,0,1,0,0,16.68Z"/><path class="cls-2" d="M794.37,259.14H791l-2.7-6.08h-9.17l-2.7,6.08h-3.33l10.61-22.76ZM780.5,250H787l-3.24-7.28Z"/><path class="cls-2" d="M831,236.38v22.76l-15.17-15.43v15.43h-3V236.38L828,251.55V236.38Z"/><path class="cls-1" d="M892.48,250.82a11.64,11.64,0,0,1,.46-3.37,8.17,8.17,0,0,1,1.32-2.64,6.08,6.08,0,0,1,2.06-1.72,5.78,5.78,0,0,1,2.71-.62,6.16,6.16,0,0,1,2.56.49,5.3,5.3,0,0,1,1.9,1.43V235.9h2.8v23.24h-2.57l-.12-1.73a5.5,5.5,0,0,1-2,1.52,6.43,6.43,0,0,1-2.65.51,5.74,5.74,0,0,1-2.69-.63,6.27,6.27,0,0,1-2-1.76,8.58,8.58,0,0,1-1.31-2.64,10.77,10.77,0,0,1-.47-3.27Zm2.8.32a9.72,9.72,0,0,0,.25,2.26,6.15,6.15,0,0,0,.8,1.9,4,4,0,0,0,1.37,1.29,3.91,3.91,0,0,0,2,.47,4.65,4.65,0,0,0,1.29-.16,3.92,3.92,0,0,0,1.88-1.22,5.3,5.3,0,0,0,.63-1v-7.59a4.64,4.64,0,0,0-1.47-1.64,3.9,3.9,0,0,0-2.3-.65,4,4,0,0,0-2,.49,4.08,4.08,0,0,0-1.37,1.31,6.15,6.15,0,0,0-.8,1.9,9.9,9.9,0,0,0-.25,2.28Z"/><path class="cls-1" d="M940.2,259.44a8.35,8.35,0,0,1-3.16-.59,7.09,7.09,0,0,1-2.48-1.65,7.49,7.49,0,0,1-1.6-2.51,8.58,8.58,0,0,1-.58-3.16v-.64a9.39,9.39,0,0,1,.64-3.54,8,8,0,0,1,1.69-2.65A7.4,7.4,0,0,1,937.1,243a6.9,6.9,0,0,1,2.74-.57,7.25,7.25,0,0,1,3.09.61,6,6,0,0,1,2.21,1.7,7.19,7.19,0,0,1,1.3,2.54,11.16,11.16,0,0,1,.44,3.18v1.26h-11.7a6.66,6.66,0,0,0,.43,2.1,5.58,5.58,0,0,0,1.06,1.72,5,5,0,0,0,3.69,1.58A5.66,5.66,0,0,0,945,255l1.71,1.33a6.52,6.52,0,0,1-1,1.19,7.42,7.42,0,0,1-1.41,1,8.31,8.31,0,0,1-1.82.71A9,9,0,0,1,940.2,259.44Zm-.36-14.67a4.11,4.11,0,0,0-1.6.31,4,4,0,0,0-1.36.91,4.77,4.77,0,0,0-1,1.46,6.87,6.87,0,0,0-.59,2h8.81v-.21a6.45,6.45,0,0,0-.31-1.62,4.56,4.56,0,0,0-.78-1.44,3.87,3.87,0,0,0-3.15-1.42Z"/><path class="cls-1" d="M983.82,254.8a2,2,0,0,0-.2-.9,1.93,1.93,0,0,0-.67-.74,5.3,5.3,0,0,0-1.24-.61,12.4,12.4,0,0,0-1.92-.51,19.28,19.28,0,0,1-2.56-.69,8.7,8.7,0,0,1-2-1A4.25,4.25,0,0,1,974,249a3.44,3.44,0,0,1-.46-1.78,3.89,3.89,0,0,1,.47-1.86,4.92,4.92,0,0,1,1.32-1.53,6.61,6.61,0,0,1,2-1,8.12,8.12,0,0,1,2.58-.38,8.84,8.84,0,0,1,2.72.39,6.31,6.31,0,0,1,2.06,1.09,5,5,0,0,1,1.31,1.63,4.52,4.52,0,0,1,.46,2h-2.8a2.21,2.21,0,0,0-.27-1,3,3,0,0,0-.76-.89,3.65,3.65,0,0,0-1.17-.64,4.71,4.71,0,0,0-1.55-.24,5.67,5.67,0,0,0-1.57.19,3.76,3.76,0,0,0-1.12.53,2.42,2.42,0,0,0-.67.77,2,2,0,0,0,0,1.78,1.91,1.91,0,0,0,.63.68,4.85,4.85,0,0,0,1.2.54,17,17,0,0,0,1.9.47,23.09,23.09,0,0,1,2.7.73,7.85,7.85,0,0,1,2,1,4.12,4.12,0,0,1,1.25,1.36,3.53,3.53,0,0,1,.43,1.78,4,4,0,0,1-.49,2,4.54,4.54,0,0,1-1.37,1.53,6.58,6.58,0,0,1-2.1,1,9.87,9.87,0,0,1-2.68.35,9,9,0,0,1-3-.45,6.88,6.88,0,0,1-2.2-1.18,5,5,0,0,1-1.38-1.7,4.44,4.44,0,0,1-.48-2h2.8a3,3,0,0,0,.46,1.45,3.27,3.27,0,0,0,1,1,4.18,4.18,0,0,0,1.33.51,7,7,0,0,0,1.43.15,5.23,5.23,0,0,0,2.8-.65A2,2,0,0,0,983.82,254.8Z"/><path class="cls-1" d="M1013.34,242.77h8.37v14h5.34v2.42h-13.71v-2.42h5.57V245.21h-5.57Zm5.21-4.29a1.76,1.76,0,0,1,.41-1.18,1.62,1.62,0,0,1,1.27-.47,1.61,1.61,0,0,1,1.25.47,1.68,1.68,0,0,1,.43,1.18,1.56,1.56,0,0,1-.43,1.13,1.63,1.63,0,0,1-1.25.45,1.65,1.65,0,0,1-1.27-.45A1.64,1.64,0,0,1,1018.55,238.48Z"/><path class="cls-1" d="M1052.36,250.82a12.38,12.38,0,0,1,.44-3.37,8,8,0,0,1,1.3-2.64,6.05,6.05,0,0,1,2.05-1.72,5.85,5.85,0,0,1,2.74-.62,6.19,6.19,0,0,1,2.66.54,5.2,5.2,0,0,1,1.94,1.55l.14-1.79h2.54v16a7.54,7.54,0,0,1-.51,2.87,5.89,5.89,0,0,1-3.61,3.47,8.32,8.32,0,0,1-2.81.45,9,9,0,0,1-1.45-.14,8.82,8.82,0,0,1-1.66-.47,8,8,0,0,1-1.62-.87,5.37,5.37,0,0,1-1.34-1.35l1.46-1.68a7,7,0,0,0,1,1.06,6,6,0,0,0,1.11.68,4.33,4.33,0,0,0,1.12.37,5.26,5.26,0,0,0,1.12.12,5.39,5.39,0,0,0,1.8-.29,3.76,3.76,0,0,0,1.37-.84,3.58,3.58,0,0,0,.87-1.37,5.39,5.39,0,0,0,.3-1.87v-1.41a5.62,5.62,0,0,1-1.93,1.43,6.28,6.28,0,0,1-2.58.49,5.79,5.79,0,0,1-2.71-.63,6.17,6.17,0,0,1-2.05-1.76,8.33,8.33,0,0,1-1.29-2.64,11.44,11.44,0,0,1-.45-3.27Zm2.8.32a9.72,9.72,0,0,0,.25,2.26,5.68,5.68,0,0,0,.78,1.9,4.12,4.12,0,0,0,1.37,1.29,4,4,0,0,0,2,.47,4.36,4.36,0,0,0,1.3-.17,3.62,3.62,0,0,0,1.05-.49,3.69,3.69,0,0,0,.82-.76,4.66,4.66,0,0,0,.64-1v-7.5a5,5,0,0,0-.64-.94,4.14,4.14,0,0,0-.83-.73,3.66,3.66,0,0,0-1-.48,4.24,4.24,0,0,0-1.27-.18,3.9,3.9,0,0,0-2,.49,4,4,0,0,0-1.38,1.31,5.68,5.68,0,0,0-.78,1.9,9.9,9.9,0,0,0-.25,2.28Z"/><path class="cls-1" d="M1095.35,242.77l.2,2.42a6.4,6.4,0,0,1,2.19-2,6,6,0,0,1,2.9-.73,7.18,7.18,0,0,1,2.34.36,4.37,4.37,0,0,1,1.79,1.14,4.94,4.94,0,0,1,1.14,1.95,8.85,8.85,0,0,1,.41,2.83v10.39h-2.8V248.81a5.87,5.87,0,0,0-.25-1.85,3,3,0,0,0-.71-1.22,2.87,2.87,0,0,0-1.17-.69,5.4,5.4,0,0,0-1.58-.21,4.37,4.37,0,0,0-2.47.71,5.13,5.13,0,0,0-1.7,1.85v11.74h-2.8V242.77Z"/><path class="cls-1" d="M1183.39,256.88a5.93,5.93,0,0,1-2,1.89,5.78,5.78,0,0,1-2.83.67,6.36,6.36,0,0,1-2.33-.4,4.48,4.48,0,0,1-1.79-1.25,5.86,5.86,0,0,1-1.14-2.15,10.75,10.75,0,0,1-.4-3.14v-9.73h2.8v9.76a9.79,9.79,0,0,0,.21,2.21,3.43,3.43,0,0,0,.64,1.4,2.27,2.27,0,0,0,1,.73,4.38,4.38,0,0,0,1.42.21,5,5,0,0,0,2.76-.69,4.22,4.22,0,0,0,1.56-1.88V242.77h2.82v16.37h-2.55Z"/><path class="cls-1" d="M1215.25,242.77l.19,2.42a6.52,6.52,0,0,1,2.2-2,6,6,0,0,1,2.9-.73,7.18,7.18,0,0,1,2.34.36,4.37,4.37,0,0,1,1.79,1.14,5.06,5.06,0,0,1,1.14,1.95,8.86,8.86,0,0,1,.4,2.83v10.39h-2.8V248.81a6.2,6.2,0,0,0-.24-1.85,2.89,2.89,0,0,0-.72-1.22,2.77,2.77,0,0,0-1.16-.69,5.45,5.45,0,0,0-1.58-.21,4.37,4.37,0,0,0-2.47.71,5.16,5.16,0,0,0-1.71,1.85v11.74h-2.79V242.77Z"/><path class="cls-1" d="M1253.14,242.77h8.36v14h5.34v2.42h-13.7v-2.42h5.57V245.21h-5.57Zm5.2-4.29a1.72,1.72,0,0,1,.42-1.18,1.92,1.92,0,0,1,2.52,0,1.72,1.72,0,0,1,.42,1.18,1.6,1.6,0,0,1-.42,1.13,2,2,0,0,1-2.52,0A1.6,1.6,0,0,1,1258.34,238.48Z"/><path class="cls-1" d="M1299.29,238.81v4h6.23v2.16h-6.23v8.9a4.39,4.39,0,0,0,.24,1.57,2.51,2.51,0,0,0,.67,1,2.38,2.38,0,0,0,1,.52,4.41,4.41,0,0,0,1.17.15,7.7,7.7,0,0,0,.94-.05c.32,0,.63-.08.94-.13l.86-.15.66-.15.39,2a3.65,3.65,0,0,1-.84.37,9.6,9.6,0,0,1-1.09.28c-.39.07-.81.13-1.25.17s-.87.06-1.31.06a6.39,6.39,0,0,1-2-.31,4.2,4.2,0,0,1-1.64-1,4.64,4.64,0,0,1-1.1-1.74,7.28,7.28,0,0,1-.4-2.58v-8.9h-4.3v-2.16h4.3v-4Z"/><path class="cls-1" d="M1337.5,257.32a2.32,2.32,0,0,1,.15-.84,1.86,1.86,0,0,1,1.09-1.15,2.39,2.39,0,0,1,1-.17,2.42,2.42,0,0,1,1,.17,1.86,1.86,0,0,1,.69.46,1.88,1.88,0,0,1,.43.69,2.55,2.55,0,0,1,.14.84,2.49,2.49,0,0,1-.14.83,1.93,1.93,0,0,1-1.12,1.12,2.85,2.85,0,0,1-1,.15,2.8,2.8,0,0,1-1-.15,1.85,1.85,0,0,1-1.09-1.12A2.27,2.27,0,0,1,1337.5,257.32Z"/></g></g></svg>