<svg xmlns="http://www.w3.org/2000/svg" viewBox="0 0 1138.52 280.74"><defs><style>.cls-1{fill:#363689;}.cls-2{fill:#2f2a72;}.cls-3{fill:#5347a5;}.cls-4{fill:#3d3193;}.cls-5{fill:#424242;}</style></defs><g id="Layer_2" data-name="Layer 2"><g id="레이어_1" data-name="레이어 1"><path class="cls-1" d="M237,245.19l-45.18-78.26a118,118,0,0,1-30.9,17.59L206.2,263h0L237,280.74V245.19Z"/><path class="cls-2" d="M118.49,40,88.59,57.22a1,1,0,0,0-.37,1.39l72.69,125.91a118,118,0,0,0,30.9-17.59Zm0,39.48a5.74,5.74,0,1,1,5.74-5.74A5.74,5.74,0,0,1,118.49,79.44Z"/><path class="cls-3" d="M0,245.19H0v35.55L30.78,263h0l45.29-78.44a118.15,118.15,0,0,1-30.89-17.58Z"/><path class="cls-4" d="M118.49,40l-73.31,127a118.15,118.15,0,0,0,30.89,17.58L148.77,58.6a1,1,0,0,0-.37-1.37Zm0,39.48a5.74,5.74,0,1,1,5.74-5.74A5.74,5.74,0,0,1,118.49,79.44Z"/><path class="cls-3" d="M148.72,55.24,121.09,38.1a2.63,2.63,0,0,1-1.25-2.24V.67a.65.65,0,0,1,1.28-.19c2.57,9.38,9.74,29.76,28.08,54.25A.35.35,0,0,1,148.72,55.24Z"/><path class="cls-4" d="M88.27,55.24,115.9,38.1a2.65,2.65,0,0,0,1.25-2.24V.67a.66.66,0,0,0-1.29-.19c-2.56,9.38-9.74,29.76-28.07,54.25A.35.35,0,0,0,88.27,55.24Z"/><path class="cls-5" d="M401.36,207H344.73L334,239.24H299.62L358,82.49H387.9l58.68,156.75H412.24Zm-47.91-26.17h39.19l-19.7-58.67Z"/><path class="cls-5" d="M566.3,108.65h-48V239.24H486V108.65H438.61V82.49H566.3Z"/><path class="cls-5" d="M679,171.31H617v42h72.78v25.94H584.71V82.49H689.57v26.16H617V146h62Z"/><path class="cls-5" d="M741,213.3h68.58v25.94H708.73V82.49H741Z"/><path class="cls-5" d="M862.47,239.24H830.18V82.49h32.29Z"/><path class="cls-5" d="M986.72,171.31h-62v42h72.78v25.94H892.4V82.49H997.27v26.16H924.7V146h62Z"/><path class="cls-5" d="M1074.46,181.86h-25.73v57.38h-32.3V82.49h58.25A88.65,88.65,0,0,1,1099,85.56a50.89,50.89,0,0,1,18.19,9,39.6,39.6,0,0,1,11.41,14.8,49.27,49.27,0,0,1,4,20.46,56.77,56.77,0,0,1-1.94,15.45,40.2,40.2,0,0,1-14.43,21.48,57.94,57.94,0,0,1-11.63,6.89l33.92,64.06v1.5h-34.67Zm-25.73-26.16h26a34,34,0,0,0,11.15-1.67,21.34,21.34,0,0,0,8-4.74,19.62,19.62,0,0,0,4.79-7.32,26.57,26.57,0,0,0,1.62-9.53q0-11.09-6.3-17.44t-19.32-6.35h-26Z"/><polygon class="cls-1" points="373.1 73.51 385.04 52.84 361.17 52.84 373.1 73.51"/><path class="cls-5" d="M311,276.51h-6.64l-1.39,4h-3.1l6.48-17.14H309l6.49,17.14h-3.11Zm-5.8-2.4h5L307.64,267Z"/><path class="cls-5" d="M359.71,280.5h-3l-7.65-12.16V280.5h-3V263.36h3l7.67,12.21V263.36h2.95Z"/><path class="cls-1" d="M437,262.4v2.43H427.3v4.81H437v2.42H427.3v6H437v2.41H424.89V262.4Z"/><path class="cls-1" d="M468.37,262.4a9.05,9.05,0,0,1,0,18.1h-6.64V262.4Zm0,15.69a6.63,6.63,0,0,0,0-13.26h-4.24v13.26Z"/><path class="cls-1" d="M519.79,278.09v2.41h-9A9.05,9.05,0,1,1,516,264.11a8.88,8.88,0,0,1,3.26,4.33h-2.63a6.6,6.6,0,0,0-5.9-3.61,6.63,6.63,0,1,0,0,13.26Z"/><path class="cls-1" d="M561.56,280.5H558.9l-2.15-4.83h-7.29l-2.15,4.83h-2.64l8.43-18.1Zm-11-7.23h5.15l-2.58-5.8Z"/><path class="cls-1" d="M600.19,262.4v18.1l-12.07-12.27V280.5h-2.4V262.4l12.06,12.07V262.4Z"/><path class="cls-5" d="M661.52,280.5V263.36h5.06a8.36,8.36,0,0,1,3.14.57,7,7,0,0,1,2.43,1.64,7.58,7.58,0,0,1,1.59,2.58,9.46,9.46,0,0,1,.56,3.37v.84a9.49,9.49,0,0,1-.56,3.37,7.2,7.2,0,0,1-1.59,2.56,7,7,0,0,1-2.48,1.63,8.6,8.6,0,0,1-3.23.58Zm3-14.74v12.36h2a5.4,5.4,0,0,0,2.13-.39,3.94,3.94,0,0,0,1.52-1.14,5,5,0,0,0,.92-1.81,9,9,0,0,0,.3-2.42v-.87a6.53,6.53,0,0,0-1.21-4.26,4.3,4.3,0,0,0-3.52-1.47Z"/><path class="cls-5" d="M716,272.85h-7v5.27h8.23v2.38H706V263.36H717.1v2.4H709v4.73h7Z"/><path class="cls-5" d="M754.34,276.77l4.36-13.41H762L755.8,280.5h-2.88l-6.15-17.14H750Z"/><path class="cls-5" d="M802.62,272.85h-7v5.27h8.23v2.38H792.6V263.36h11.13v2.4h-8.15v4.73h7Z"/><path class="cls-5" d="M837.92,278.12h7.78v2.38H834.94V263.36h3Z"/><path class="cls-5" d="M889.61,272.38a11.16,11.16,0,0,1-.51,3.5,7.52,7.52,0,0,1-1.44,2.62,6.34,6.34,0,0,1-2.24,1.66,7.49,7.49,0,0,1-5.78,0,6.59,6.59,0,0,1-2.26-1.66,7.57,7.57,0,0,1-1.47-2.62,10.87,10.87,0,0,1-.52-3.5v-.88a11,11,0,0,1,.52-3.51,7.87,7.87,0,0,1,1.46-2.63,6.14,6.14,0,0,1,2.25-1.66,7.49,7.49,0,0,1,5.78,0,6.06,6.06,0,0,1,2.25,1.66A7.52,7.52,0,0,1,889.1,268a11.27,11.27,0,0,1,.51,3.51Zm-3-.9a10.75,10.75,0,0,0-.27-2.54,5.57,5.57,0,0,0-.81-1.84,3.48,3.48,0,0,0-1.3-1.12,3.82,3.82,0,0,0-1.75-.39,3.72,3.72,0,0,0-1.72.39,3.56,3.56,0,0,0-1.3,1.12,5.38,5.38,0,0,0-.82,1.84,9.75,9.75,0,0,0-.29,2.54v.9a9.8,9.8,0,0,0,.29,2.54,5.44,5.44,0,0,0,.83,1.85,3.53,3.53,0,0,0,1.31,1.13,3.75,3.75,0,0,0,1.72.39,3.53,3.53,0,0,0,3.05-1.51,7.6,7.6,0,0,0,1.06-4.4Z"/><path class="cls-5" d="M924.26,274.13v6.37h-3V263.36h6.56a8,8,0,0,1,2.65.4,5.48,5.48,0,0,1,2,1.14,4.7,4.7,0,0,1,1.22,1.73,6,6,0,0,1,0,4.41,4.44,4.44,0,0,1-1.22,1.68,5.47,5.47,0,0,1-2,1,8.61,8.61,0,0,1-2.65.37Zm0-2.39h3.58a4.68,4.68,0,0,0,1.48-.21,2.59,2.59,0,0,0,1-.6,2.39,2.39,0,0,0,.59-.93,3.63,3.63,0,0,0,.18-1.17,3.69,3.69,0,0,0-.18-1.15,2.78,2.78,0,0,0-.59-1,2.85,2.85,0,0,0-1-.68,3.92,3.92,0,0,0-1.48-.25h-3.58Z"/><path class="cls-5" d="M1012.64,263.36v11.46a6.22,6.22,0,0,1-.5,2.58,5.26,5.26,0,0,1-1.38,1.85,5.65,5.65,0,0,1-2,1.11,8.13,8.13,0,0,1-2.5.38,8.31,8.31,0,0,1-2.55-.38,5.49,5.49,0,0,1-2-1.11,5,5,0,0,1-1.34-1.85,6.38,6.38,0,0,1-.49-2.58V263.36h3v11.46a4.67,4.67,0,0,0,.24,1.59,2.87,2.87,0,0,0,.69,1.1,2.8,2.8,0,0,0,1.08.64,5,5,0,0,0,2.86,0,2.66,2.66,0,0,0,1.08-.64,2.87,2.87,0,0,0,.69-1.1,4.67,4.67,0,0,0,.24-1.59V263.36Z"/><path class="cls-5" d="M1058.11,280.5h-3l-7.64-12.16V280.5h-3V263.36h3l7.67,12.21V263.36h2.95Z"/><path class="cls-5" d="M1093.48,280.5h-3V263.36h3Z"/><path class="cls-5" d="M1137.88,265.76h-5.34V280.5h-3V265.76h-5.3v-2.4h13.6Z"/></g></g></svg>