<svg xmlns="http://www.w3.org/2000/svg" viewBox="0 0 607.79 720"><defs><style>.cls-1{fill:#363689;}.cls-2{fill:#2f2a72;}.cls-3{fill:#5347a5;}.cls-4{fill:#3d3193;}</style></defs><g id="Layer_2" data-name="Layer 2"><g id="레이어_1" data-name="레이어 1"><path class="cls-1" d="M607.79,628.83,491.92,428.13a303.21,303.21,0,0,1-79.23,45.11L528.84,674.42h0L607.79,720V628.83Z"/><path class="cls-2" d="M303.9,102.48l-76.7,44.28a2.6,2.6,0,0,0-.95,3.55L412.69,473.24a303.21,303.21,0,0,0,79.23-45.11Zm0,101.26A14.72,14.72,0,1,1,318.62,189,14.72,14.72,0,0,1,303.9,203.74Z"/><path class="cls-3" d="M0,628.83H0V720l79-45.58h0L195.1,473.25a303.21,303.21,0,0,1-79.23-45.11Z"/><path class="cls-4" d="M303.89,102.48l-188,325.66a303.21,303.21,0,0,0,79.23,45.11L381.55,150.3a2.58,2.58,0,0,0-.94-3.53Zm0,101.26A14.72,14.72,0,1,1,318.62,189,14.72,14.72,0,0,1,303.9,203.74Z"/><path class="cls-3" d="M381.41,141.68l-70.86-44a6.74,6.74,0,0,1-3.2-5.74V1.71a1.68,1.68,0,0,1,3.3-.48c6.57,24.06,25,76.33,72,139.14A.91.91,0,0,1,381.41,141.68Z"/><path class="cls-4" d="M226.38,141.68l70.87-44A6.76,6.76,0,0,0,300.44,92V1.71a1.68,1.68,0,0,0-3.29-.48c-6.58,24.06-25,76.33-72,139.14A.91.91,0,0,0,226.38,141.68Z"/></g></g></svg>