<svg xmlns="http://www.w3.org/2000/svg" viewBox="0 0 680 715.69"><defs><style>.cls-1{fill:#4d4d4d;}.cls-2{fill:#ff6661;}</style></defs><g id="Layer_2" data-name="Layer 2"><g id="레이어_1" data-name="레이어 1"><rect class="cls-1" width="133.33" height="133.33"/><path class="cls-2" d="M133.33,0h33.33a100,100,0,0,1,100,100v33.33a0,0,0,0,1,0,0H133.33a0,0,0,0,1,0,0V0A0,0,0,0,1,133.33,0Z"/><path class="cls-1" d="M133.33,133.33H266.67a0,0,0,0,1,0,0v33.33a100,100,0,0,1-100,100H133.33a0,0,0,0,1,0,0V133.33a0,0,0,0,1,0,0Z"/><path class="cls-1" d="M280,266.67H413.33a0,0,0,0,1,0,0V400a0,0,0,0,1,0,0H380A100,100,0,0,1,280,300V266.67A0,0,0,0,1,280,266.67Z"/><rect class="cls-2" x="413.33" y="133.33" width="133.33" height="133.33"/><path class="cls-1" d="M380,0h33.33a0,0,0,0,1,0,0V133.33a0,0,0,0,1,0,0H280a0,0,0,0,1,0,0V100A100,100,0,0,1,380,0Z"/><path class="cls-1" d="M546.67,266.67H680a0,0,0,0,1,0,0V300A100,100,0,0,1,580,400H546.67a0,0,0,0,1,0,0V266.67A0,0,0,0,1,546.67,266.67Z"/><path class="cls-1" d="M546.67,0H580A100,100,0,0,1,680,100v33.33a0,0,0,0,1,0,0H546.67a0,0,0,0,1,0,0V0A0,0,0,0,1,546.67,0Z"/><rect class="cls-2" y="133.33" width="133.33" height="133.33"/><rect class="cls-1" y="266.67" width="133.33" height="133.33"/><path class="cls-2" d="M32.67,592.76v57.52H2.4V493.44H56a68,68,0,0,1,23.16,3.72A51.84,51.84,0,0,1,96.81,507.5,44.94,44.94,0,0,1,108,523.39,52.17,52.17,0,0,1,112,544a47.92,47.92,0,0,1-3.94,19.5,44.68,44.68,0,0,1-11.2,15.46A52.19,52.19,0,0,1,79.2,589.1,69,69,0,0,1,56,592.76Zm0-24.56H56a29.52,29.52,0,0,0,11.2-1.94A22.46,22.46,0,0,0,75.16,561a21.51,21.51,0,0,0,4.74-7.7,26.82,26.82,0,0,0,1.56-9.1,32.64,32.64,0,0,0-1.56-10.24,23.19,23.19,0,0,0-4.74-8.29,22.27,22.27,0,0,0-7.92-5.6A28.17,28.17,0,0,0,56,518H32.67Z"/><path class="cls-1" d="M150.55,493.44h90.7V517.9H210.66v108h30.59v24.35h-90.7V625.93h29.84v-108H150.55Z"/><path class="cls-2" d="M340.39,549.67l27.9-56.23h35.55l-44.17,77.77,45.24,79.07H369.58l-28.76-57.09-28.65,57.09H276.41l45.24-79.07-44.06-77.77h35.33Z"/><path class="cls-1" d="M527.21,581.56H462.8v44.27h75.29v24.45H432.42V493.44H537.77v24.67h-75v39.53h64.41Z"/><path class="cls-1" d="M606.54,625.83H680v24.45H576.16V493.44h30.38Z"/><path class="cls-1" d="M13.63,710.28a2.83,2.83,0,0,1-.22-.66c-.05-.27-.09-.55-.12-.83a7.52,7.52,0,0,1-.79.67,6.13,6.13,0,0,1-1,.56,6.41,6.41,0,0,1-1.12.38,5.75,5.75,0,0,1-1.27.14,5.87,5.87,0,0,1-2-.32,4.63,4.63,0,0,1-1.49-.86,3.79,3.79,0,0,1-1-1.28,3.88,3.88,0,0,1-.33-1.6,4.2,4.2,0,0,1,.45-2,4,4,0,0,1,1.27-1.41,5.8,5.8,0,0,1,2-.84,11,11,0,0,1,2.6-.28h2.56v-1.08a2.52,2.52,0,0,0-.23-1.12,2.42,2.42,0,0,0-.64-.85,2.87,2.87,0,0,0-1-.53,4.35,4.35,0,0,0-1.35-.2,4.06,4.06,0,0,0-1.25.18,3.12,3.12,0,0,0-.93.47,2.13,2.13,0,0,0-.59.69,1.8,1.8,0,0,0-.21.84H4.66A3.35,3.35,0,0,1,5,698.88a4.24,4.24,0,0,1,1.08-1.3,5.74,5.74,0,0,1,1.72-.93,6.75,6.75,0,0,1,2.29-.36,7.91,7.91,0,0,1,2.17.29,4.93,4.93,0,0,1,1.73.86,4.15,4.15,0,0,1,1.15,1.44,4.58,4.58,0,0,1,.42,2v6.39a8.39,8.39,0,0,0,.13,1.45,6.35,6.35,0,0,0,.35,1.34v.2Zm-4.15-1.79a4.72,4.72,0,0,0,1.28-.17,5.12,5.12,0,0,0,1.09-.47,4.06,4.06,0,0,0,.84-.67,3.06,3.06,0,0,0,.56-.78v-2.78H11.07a6.84,6.84,0,0,0-3.2.61,2,2,0,0,0-1.14,1.92,2.37,2.37,0,0,0,.17.93,1.93,1.93,0,0,0,.51.75,2.6,2.6,0,0,0,.87.49A3.9,3.9,0,0,0,9.48,708.49Z"/><path class="cls-1" d="M40.26,696.55l.16,2a5.43,5.43,0,0,1,1.84-1.67,5.11,5.11,0,0,1,2.44-.62,6.06,6.06,0,0,1,2,.31,3.77,3.77,0,0,1,1.51.95,4.33,4.33,0,0,1,.95,1.64,7.32,7.32,0,0,1,.34,2.37v8.72H47.11v-8.67a5.35,5.35,0,0,0-.2-1.55,2.56,2.56,0,0,0-.6-1,2.37,2.37,0,0,0-1-.58,4.88,4.88,0,0,0-1.33-.17,3.59,3.59,0,0,0-2.07.59,4.26,4.26,0,0,0-1.43,1.55v9.85H38.15V696.55Z"/><path class="cls-2" d="M115.76,691.18v2.56h-10.2v5.08h10.2v2.56h-10.2v6.36h10.2v2.54H103v-19.1Z"/><path class="cls-2" d="M138.91,691.18a9.55,9.55,0,0,1,0,19.1h-7v-19.1Zm0,16.56a7,7,0,1,0,0-14h-4.47v14Z"/><path class="cls-2" d="M183.18,707.74v2.54h-9.55A9.55,9.55,0,1,1,179.2,693a9.36,9.36,0,0,1,3.44,4.57h-2.78a7,7,0,0,0-11.19-1.76,7,7,0,0,0,5,12Z"/><path class="cls-2" d="M217.28,710.28h-2.82l-2.26-5.09h-7.7l-2.26,5.09h-2.8l8.91-19.1Zm-11.64-7.63h5.43l-2.72-6.12Z"/><path class="cls-2" d="M248.05,691.18v19.1l-12.74-12.95v12.95h-2.53v-19.1l12.73,12.74V691.18Z"/><path class="cls-1" d="M299.62,703.3a10,10,0,0,1,.38-2.82,6.8,6.8,0,0,1,1.11-2.22,5.13,5.13,0,0,1,1.73-1.45,5,5,0,0,1,2.27-.52,5.17,5.17,0,0,1,2.16.42,4.41,4.41,0,0,1,1.59,1.2v-7.13h2.35v19.5h-2.16l-.1-1.44a4.49,4.49,0,0,1-1.64,1.27,5.43,5.43,0,0,1-2.22.43,4.74,4.74,0,0,1-2.26-.54,5,5,0,0,1-1.71-1.47,6.85,6.85,0,0,1-1.11-2.21,9.37,9.37,0,0,1-.39-2.75Zm2.35.27a8.32,8.32,0,0,0,.21,1.9,5.18,5.18,0,0,0,.67,1.59,3.21,3.21,0,0,0,1.15,1.08,3.25,3.25,0,0,0,1.67.4,4,4,0,0,0,1.08-.13,3.23,3.23,0,0,0,.88-.41,3.42,3.42,0,0,0,.7-.62,4.44,4.44,0,0,0,.53-.8V700.2a4.15,4.15,0,0,0-1.23-1.37,3.3,3.3,0,0,0-1.93-.54,3.17,3.17,0,0,0-2.85,1.5,5.24,5.24,0,0,0-.67,1.6,8.41,8.41,0,0,0-.21,1.91Z"/><path class="cls-1" d="M339.67,710.54A7,7,0,0,1,337,710a6.06,6.06,0,0,1-2.07-1.38,6.26,6.26,0,0,1-1.35-2.11,7.17,7.17,0,0,1-.48-2.65v-.54a7.94,7.94,0,0,1,.53-3,6.78,6.78,0,0,1,1.42-2.22,6.17,6.17,0,0,1,2-1.39,5.68,5.68,0,0,1,2.31-.49,6,6,0,0,1,2.59.52,4.94,4.94,0,0,1,1.85,1.42,6,6,0,0,1,1.1,2.14,9.45,9.45,0,0,1,.36,2.66v1.06h-9.81a5.16,5.16,0,0,0,.36,1.76,4.59,4.59,0,0,0,.89,1.44,4,4,0,0,0,1.35,1,4.1,4.1,0,0,0,1.74.36,4.73,4.73,0,0,0,2.23-.51,4.87,4.87,0,0,0,1.63-1.34l1.43,1.11a5.19,5.19,0,0,1-.85,1,6.21,6.21,0,0,1-1.19.85,7.18,7.18,0,0,1-1.52.59A7.78,7.78,0,0,1,339.67,710.54Zm-.3-12.32a3.6,3.6,0,0,0-1.35.26,3.73,3.73,0,0,0-1.14.76,4.55,4.55,0,0,0-.86,1.24,6,6,0,0,0-.49,1.68h7.39V702a5,5,0,0,0-.26-1.36,3.67,3.67,0,0,0-.65-1.2,3.23,3.23,0,0,0-1.09-.87A3.38,3.38,0,0,0,339.37,698.22Z"/><path class="cls-1" d="M376.27,706.64a1.73,1.73,0,0,0-.16-.76,1.68,1.68,0,0,0-.56-.61,4.37,4.37,0,0,0-1-.52,12.67,12.67,0,0,0-1.61-.42,15.45,15.45,0,0,1-2.15-.59,7,7,0,0,1-1.67-.81,3.55,3.55,0,0,1-1.07-1.12,2.92,2.92,0,0,1-.38-1.49,3.29,3.29,0,0,1,.39-1.57,4.08,4.08,0,0,1,1.11-1.28,5.6,5.6,0,0,1,1.69-.86,7.11,7.11,0,0,1,2.17-.32,7.38,7.38,0,0,1,2.28.33,5.28,5.28,0,0,1,1.73.92,4.21,4.21,0,0,1,1.1,1.36,3.83,3.83,0,0,1,.38,1.68h-2.35a1.87,1.87,0,0,0-.22-.87,2.66,2.66,0,0,0-.64-.75,3.17,3.17,0,0,0-1-.53,3.81,3.81,0,0,0-1.3-.21,4.75,4.75,0,0,0-1.32.17,3.15,3.15,0,0,0-.94.44,1.81,1.81,0,0,0-.56.65,1.61,1.61,0,0,0-.19.76,1.73,1.73,0,0,0,.15.73,1.49,1.49,0,0,0,.53.57,3.76,3.76,0,0,0,1,.45,14,14,0,0,0,1.59.4,19.55,19.55,0,0,1,2.28.61,6.75,6.75,0,0,1,1.68.84,3.53,3.53,0,0,1,1.05,1.14,3,3,0,0,1,.36,1.5,3.35,3.35,0,0,1-.41,1.66,3.79,3.79,0,0,1-1.15,1.28,5.4,5.4,0,0,1-1.76.82,8.05,8.05,0,0,1-2.25.3,7.66,7.66,0,0,1-2.49-.38,6,6,0,0,1-1.85-1,4.25,4.25,0,0,1-1.15-1.43,3.71,3.71,0,0,1-.4-1.68h2.35a2.41,2.41,0,0,0,.38,1.21,2.78,2.78,0,0,0,.84.8,3.58,3.58,0,0,0,1.11.44,6.28,6.28,0,0,0,1.21.12,4.42,4.42,0,0,0,2.35-.54A1.68,1.68,0,0,0,376.27,706.64Z"/><path class="cls-1" d="M401.06,696.55h7v11.7h4.48v2h-11.5v-2h4.67v-9.66h-4.67Zm4.36-3.61a1.43,1.43,0,0,1,.35-1,1.6,1.6,0,0,1,2.12,0,1.43,1.43,0,0,1,.35,1,1.41,1.41,0,1,1-2.82,0Z"/><path class="cls-1" d="M433.8,703.3a10,10,0,0,1,.37-2.82,6.77,6.77,0,0,1,1.09-2.22,4.9,4.9,0,0,1,4-2,5.19,5.19,0,0,1,2.23.45,4.4,4.4,0,0,1,1.63,1.31l.12-1.5h2.13V710a6.44,6.44,0,0,1-.42,2.41,5.13,5.13,0,0,1-1.2,1.79,5,5,0,0,1-1.83,1.12,6.83,6.83,0,0,1-2.36.38,7.06,7.06,0,0,1-1.22-.12,7.44,7.44,0,0,1-1.39-.39,6.88,6.88,0,0,1-1.36-.73,4.46,4.46,0,0,1-1.12-1.13l1.21-1.41a6.13,6.13,0,0,0,.89.88,5.25,5.25,0,0,0,.93.58,4.31,4.31,0,0,0,.94.31,4.91,4.91,0,0,0,.94.09,4.47,4.47,0,0,0,1.51-.24,3.12,3.12,0,0,0,1.15-.7,3,3,0,0,0,.73-1.15,4.5,4.5,0,0,0,.25-1.57v-1.19a4.43,4.43,0,0,1-1.62,1.2,5.2,5.2,0,0,1-2.16.42A4.73,4.73,0,0,1,437,710a5,5,0,0,1-1.72-1.47,6.82,6.82,0,0,1-1.09-2.21,9.72,9.72,0,0,1-.38-2.75Zm2.35.27a8.32,8.32,0,0,0,.21,1.9,4.94,4.94,0,0,0,.66,1.59,3.21,3.21,0,0,0,1.15,1.08,3.25,3.25,0,0,0,1.67.4,4.08,4.08,0,0,0,1.1-.14,3.39,3.39,0,0,0,.88-.41,3.22,3.22,0,0,0,.69-.64,4.52,4.52,0,0,0,.53-.81v-6.3a4.36,4.36,0,0,0-.53-.79,3.41,3.41,0,0,0-.7-.61,3.1,3.1,0,0,0-.88-.41,3.53,3.53,0,0,0-1.06-.14,3.17,3.17,0,0,0-2.85,1.5,5,5,0,0,0-.66,1.6,8.41,8.41,0,0,0-.21,1.91Z"/><path class="cls-1" d="M469.88,696.55l.17,2a5.43,5.43,0,0,1,1.84-1.67,5.11,5.11,0,0,1,2.44-.62,6.1,6.1,0,0,1,2,.31,3.74,3.74,0,0,1,1.5.95,4.22,4.22,0,0,1,1,1.64,7.6,7.6,0,0,1,.34,2.37v8.72h-2.35v-8.67a5,5,0,0,0-.21-1.55,2.35,2.35,0,0,0-.6-1,2.31,2.31,0,0,0-1-.58,4.75,4.75,0,0,0-1.32-.17,3.65,3.65,0,0,0-2.08.59,4.35,4.35,0,0,0-1.43,1.55v9.85h-2.35V696.55Z"/><path class="cls-1" d="M543.77,708.39a4.73,4.73,0,0,1-4.09,2.15,5.46,5.46,0,0,1-1.95-.34,3.66,3.66,0,0,1-1.5-1.05,4.94,4.94,0,0,1-1-1.81,9.2,9.2,0,0,1-.33-2.63v-8.16h2.34v8.19a8,8,0,0,0,.18,1.85,2.89,2.89,0,0,0,.54,1.17,1.8,1.8,0,0,0,.87.62,3.53,3.53,0,0,0,1.18.18,4.13,4.13,0,0,0,2.32-.59,3.53,3.53,0,0,0,1.31-1.57v-9.85H546v13.73h-2.13Z"/><path class="cls-1" d="M570.51,696.55l.16,2a5.46,5.46,0,0,1,1.85-1.67,5.07,5.07,0,0,1,2.43-.62,6,6,0,0,1,2,.31,3.77,3.77,0,0,1,1.51.95,4.48,4.48,0,0,1,1,1.64,7.62,7.62,0,0,1,.33,2.37v8.72h-2.34v-8.67a5,5,0,0,0-.21-1.55,2.35,2.35,0,0,0-.6-1,2.31,2.31,0,0,0-1-.58,4.83,4.83,0,0,0-1.33-.17,3.64,3.64,0,0,0-2.07.59,4.35,4.35,0,0,0-1.43,1.55v9.85H568.4V696.55Z"/><path class="cls-1" d="M602.31,696.55h7v11.7h4.48v2h-11.5v-2H607v-9.66h-4.67Zm4.37-3.61a1.43,1.43,0,0,1,.35-1,1.59,1.59,0,0,1,2.11,0,1.39,1.39,0,0,1,.36,1,1.32,1.32,0,0,1-.36.95,1.65,1.65,0,0,1-2.11,0A1.36,1.36,0,0,1,606.68,692.94Z"/><path class="cls-1" d="M641.05,693.22v3.33h5.23v1.81h-5.23v7.47a3.82,3.82,0,0,0,.2,1.32,2.17,2.17,0,0,0,.56.83,2.11,2.11,0,0,0,.82.44,3.93,3.93,0,0,0,1,.12,7.09,7.09,0,0,0,.79,0l.79-.11.73-.13.55-.12.33,1.66a3.36,3.36,0,0,1-.71.31,7.27,7.27,0,0,1-.92.23c-.33.06-.67.11-1,.15s-.74,0-1.1,0a5.57,5.57,0,0,1-1.71-.26,3.59,3.59,0,0,1-1.38-.83A4,4,0,0,1,639,708a6.25,6.25,0,0,1-.33-2.16v-7.47h-3.61v-1.81h3.61v-3.33Z"/><path class="cls-1" d="M673.12,708.76a2.08,2.08,0,0,1,.12-.71,1.64,1.64,0,0,1,.35-.58,1.69,1.69,0,0,1,.57-.39,2.16,2.16,0,0,1,.8-.14,2.2,2.2,0,0,1,.8.14,1.57,1.57,0,0,1,.94,1,2.08,2.08,0,0,1,.12.71,1.92,1.92,0,0,1-.12.69,1.65,1.65,0,0,1-.35.57,1.61,1.61,0,0,1-.59.37,2.2,2.2,0,0,1-.8.13,2.17,2.17,0,0,1-.8-.13,1.53,1.53,0,0,1-.92-.94A1.92,1.92,0,0,1,673.12,708.76Z"/></g></g></svg>